<svg height="384pt" viewBox="0 0 384 384" width="384pt" xmlns="http://www.w3.org/2000/svg"><path d="m192 15.3125c-97.199219 0-176 78.800781-176 176s78.800781 176 176 176 176-78.800781 176-176-78.800781-176-176-176zm64 240h-128v-128h128zm0 0" fill="#cce4ff"/><path d="m176 0c-98.398438 8.160156-176 90.800781-176 191.28125 0 105.863281 86.136719 192 192 192s192-86.136719 192-192c0-100.480469-77.601562-183.121094-176-191.28125zm176 191.28125c0 88.222656-71.777344 160-160 160s-160-71.777344-160-160c0-82.824219 63.257812-151.136719 144-159.191406v79.191406h-64v160h160v-160h-64v-79.191406c80.742188 8.054687 144 76.367187 144 159.191406zm-144-48h32v96h-96v-96zm0 0" fill="#007aff"/></svg>