<?xml version="1.0" encoding="UTF-8"?>
<svg width="180px" height="32px" viewBox="0 0 180 32" version="1.1" xmlns="http://www.w3.org/2000/svg" xmlns:xlink="http://www.w3.org/1999/xlink">
  <g id="Final" stroke="none" stroke-width="1" fill="none" fill-rule="evenodd">
    <g id="2-Developers" transform="translate(-40.000000, -16.000000)">
      <g id="Browserstack-logo-black" transform="translate(40.000000, 16.000000)">
        <g>
          <g id="Group-2">
            <path d="M31.0344828,15.5172414 C31.0344828,24.0874296 24.0874296,31.0344828 15.5172414,31.0344828 C6.94734717,31.0344828 0,24.0874296 0,15.5172414 C0,6.94734717 6.94734717,0 15.5172414,0 C24.0874296,0 31.0344828,6.94734717 31.0344828,15.5172414" id="Fill-1" fill="#ECB360"></path>
            <path d="M26.8965517,13.9655172 C26.8965517,21.6784019 20.8752148,27.9310345 13.4482759,27.9310345 C6.02105363,27.9310345 0,21.6784019 0,13.9655172 C0,6.25263261 6.02105363,0 13.4482759,0 C20.8752148,0 26.8965517,6.25263261 26.8965517,13.9655172" id="Fill-2" fill="#D76835"></path>
            <path d="M27.9310345,12.4136422 C27.9310345,19.2697074 22.6047339,24.8275862 16.034049,24.8275862 C9.4642316,24.8275862 4.13793103,19.2697074 4.13793103,12.4136422 C4.13793103,5.55787885 9.4642316,0 16.034049,0 C22.6047339,0 27.9310345,5.55787885 27.9310345,12.4136422" id="Fill-3" fill="#D33A41"></path>
            <path d="M26.8965517,13.4484262 C26.8965517,19.7327316 22.0332814,24.8275862 16.0343393,24.8275862 C10.0353971,24.8275862 5.17241379,19.7327316 5.17241379,13.4484262 C5.17241379,7.16351943 10.0353971,2.06896552 16.0343393,2.06896552 C22.0332814,2.06896552 26.8965517,7.16351943 26.8965517,13.4484262" id="Fill-4" fill="#B6CB46"></path>
            <path d="M25.862069,14.4826111 C25.862069,20.1959217 21.2304045,24.8275862 15.5170939,24.8275862 C9.80407825,24.8275862 5.17241379,20.1959217 5.17241379,14.4826111 C5.17241379,8.76930045 9.80407825,4.13793103 15.5170939,4.13793103 C21.2304045,4.13793103 25.862069,8.76930045 25.862069,14.4826111" id="Fill-5" fill="#66AD4A"></path>
            <path d="M21.7241379,12.4137931 C21.7241379,16.9844178 18.0189006,20.6896552 13.4482759,20.6896552 C8.87737075,20.6896552 5.17241379,16.9844178 5.17241379,12.4137931 C5.17241379,7.84316841 8.87737075,4.13793103 13.4482759,4.13793103 C18.0189006,4.13793103 21.7241379,7.84316841 21.7241379,12.4137931" id="Fill-6" fill="#AED7DC"></path>
            <path d="M22.7586207,11.3793103 C22.7586207,15.3784867 19.5166452,18.6206897 15.5170948,18.6206897 C11.5175443,18.6206897 8.27586207,15.3784867 8.27586207,11.3793103 C8.27586207,7.37984085 11.5175443,4.13793103 15.5170948,4.13793103 C19.5166452,4.13793103 22.7586207,7.37984085 22.7586207,11.3793103" id="Fill-7" fill="#5BB1CF"></path>
            <path d="M22.7586207,11.8963967 C22.7586207,15.6100389 19.9797805,18.6206897 16.5517241,18.6206897 C13.1236677,18.6206897 10.3448276,15.6100389 10.3448276,11.8963967 C10.3448276,8.18306453 13.1236677,5.17241379 16.5517241,5.17241379 C19.9797805,5.17241379 22.7586207,8.18306453 22.7586207,11.8963967" id="Fill-8" fill="#25A8C3"></path>
            <path d="M20.6896552,12.9308813 C20.6896552,16.0732337 18.3737862,18.6206897 15.5171021,18.6206897 C12.6606966,18.6206897 10.3448276,16.0732337 10.3448276,12.9308813 C10.3448276,9.78852889 12.6606966,7.24137931 15.5171021,7.24137931 C18.3737862,7.24137931 20.6896552,9.78852889 20.6896552,12.9308813" id="Fill-9"></path>
            <path d="M15.5171021,18.6206897 C12.6606966,18.6206897 10.3448276,16.0732337 10.3448276,12.9308813 C10.3448276,9.78852889 12.6606966,7.24137931 15.5171021,7.24137931 C18.3737862,7.24137931 20.6896552,9.78852889 20.6896552,12.9308813 C20.6896552,16.0732337 18.3737862,18.6206897 15.5171021,18.6206897 Z" id="Fill-11" fill="#1B1A18"></path>
            <path d="M18.3395432,11.2904163 C17.8474621,12.1136138 16.8799806,12.5897073 16.1782532,12.3530843 C15.4765258,12.116746 15.3066858,11.2573859 15.7983878,10.4339036 C16.2904689,9.61042129 17.2579504,9.13461253 17.9596778,9.37095081 C18.6614052,9.60728909 18.8312452,10.4666492 18.3395432,11.2904163" id="Fill-12" fill="#FFFFFE"></path>
          </g>
        </g>
      </g>
    </g>
  </g>
</svg>